<?xml version="1.0" standalone="no"?>
<!DOCTYPE svg PUBLIC "-//W3C//DTD SVG 20010904//EN"
 "http://www.w3.org/TR/2001/REC-SVG-20010904/DTD/svg10.dtd">
<svg version="1.0" xmlns="http://www.w3.org/2000/svg"
 width="600.000000pt" height="600.000000pt" viewBox="0 0 600.000000 600.000000"
 preserveAspectRatio="xMidYMid meet">
<metadata>
Created by potrace 1.14, written by Peter Selinger 2001-2017
</metadata>
<g transform="translate(0.000000,600.000000) scale(0.100000,-0.100000)"
fill="#000000" stroke="none">
<path d="M2303 5633 c-76 -47 -113 -74 -91 -67 13 4 15 0 12 -23 -4 -33 -33
-359 -33 -387 -1 -14 -6 -17 -22 -13 -17 4 -19 3 -10 -6 6 -6 11 -38 11 -72 0
-65 -13 -110 -119 -415 -56 -161 -61 -181 -61 -260 0 -47 5 -104 10 -128 10
-41 9 -44 -24 -78 -19 -19 -36 -47 -39 -62 -8 -41 1 -40 19 4 16 38 43 66 56
58 3 -2 19 -37 34 -77 15 -39 45 -108 66 -151 21 -44 36 -81 34 -83 -2 -3 -22
1 -45 7 -54 14 -173 15 -236 1 -27 -7 -104 -30 -170 -52 -107 -37 -124 -40
-155 -29 -19 6 -80 14 -136 17 -174 10 -334 -40 -370 -115 -19 -41 -14 -167
14 -317 14 -77 17 -85 22 -55 3 19 2 38 -3 41 -5 3 -11 24 -14 47 -5 34 -2 41
16 47 28 9 27 23 -1 18 -19 -4 -23 0 -25 23 -1 33 15 53 39 46 25 -6 22 6 -12
57 -17 24 -30 48 -30 54 0 6 21 8 52 5 l53 -6 -40 14 c-38 12 -36 13 43 7 58
-4 82 -3 82 6 0 6 -18 11 -46 11 -25 0 -55 5 -66 11 -20 11 -20 11 7 37 30 27
114 52 181 52 32 0 45 -6 64 -27 13 -16 24 -30 23 -33 -3 -11 40 -20 126 -26
89 -7 89 -7 80 -30 -5 -15 -5 -24 1 -24 6 0 10 3 10 8 0 4 36 8 80 9 79 1 79
1 125 -39 25 -22 45 -45 45 -51 0 -20 -80 -168 -118 -220 -25 -35 -51 -56 -91
-75 -31 -14 -59 -28 -63 -30 -5 -2 -9 7 -9 20 -1 15 -4 11 -8 -12 -5 -30 -3
-37 18 -47 13 -7 42 -13 65 -12 45 1 41 4 -17 14 -33 5 -37 8 -26 21 7 8 19
14 28 12 9 -1 26 7 39 20 12 12 31 23 42 23 11 1 26 2 33 3 45 4 166 -35 272
-89 161 -82 245 -129 245 -136 0 -4 -18 -18 -40 -33 -32 -21 -241 -194 -260
-215 -3 -4 -27 -25 -53 -49 l-48 -44 -77 7 c-94 8 -210 23 -277 36 -47 9 -51
12 -64 52 -18 56 -28 282 -12 291 6 4 11 0 11 -9 0 -15 2 -15 22 -1 39 28 198
15 198 -16 0 -5 7 -2 16 6 8 9 25 17 37 17 41 3 -77 17 -145 18 -39 1 -68 5
-68 11 0 6 -15 8 -39 4 -33 -5 -40 -3 -44 12 -4 15 -5 14 -6 -5 l-1 -24 -97 6
c-181 10 -374 77 -488 167 -27 21 -120 91 -205 154 -162 119 -194 148 -229
206 -34 57 -23 119 36 191 l27 34 -33 -30 c-50 -46 -61 -75 -61 -165 0 -44 4
-80 9 -80 4 0 29 -18 54 -40 25 -22 49 -40 53 -40 4 0 14 -7 23 -16 9 -8 57
-42 106 -74 50 -33 99 -66 109 -75 20 -15 20 -15 0 -30 -18 -14 -18 -14 3 -9
47 12 153 -77 286 -243 120 -149 223 -248 294 -285 37 -20 84 -41 104 -47 31
-10 37 -18 53 -67 10 -31 20 -53 23 -50 3 3 12 -2 19 -12 7 -9 14 -12 14 -5 0
6 -6 18 -13 25 -27 27 -36 52 -24 69 11 14 21 15 87 4 41 -7 114 -16 162 -20
l87 -7 -45 -54 c-77 -96 -110 -179 -150 -388 -16 -83 -21 -92 -71 -150 -59
-68 -123 -182 -147 -265 -19 -65 -21 -156 -3 -190 13 -27 172 -113 273 -149
72 -26 80 -27 60 -7 -8 9 -19 14 -23 13 -4 -1 -28 5 -51 15 -34 14 -42 21 -33
31 6 7 8 16 4 19 -3 4 0 13 7 22 9 11 9 15 1 15 -7 0 -17 -14 -22 -30 -13 -36
-20 -37 -55 -5 -15 14 -22 25 -15 25 6 0 11 6 11 14 0 8 6 16 13 19 6 2 -20 2
-60 -1 l-72 -5 3 30 c2 16 18 51 35 78 37 58 40 82 6 40 -59 -70 -82 -84 -72
-42 4 12 2 29 -3 36 -5 9 1 40 17 85 31 86 51 117 72 115 9 -1 24 1 34 6 10 4
21 5 24 1 7 -7 59 50 80 89 9 17 25 42 36 57 l20 27 19 -22 19 -22 -7 24 c-5
18 -3 22 7 16 8 -5 11 -5 7 0 -4 4 2 19 12 33 11 13 20 35 20 47 0 21 25 53
35 43 2 -2 -7 -40 -21 -83 -40 -123 -83 -279 -79 -284 2 -2 14 31 27 73 13 47
25 71 30 63 5 -8 8 -6 8 8 0 11 12 68 27 127 23 94 30 108 52 117 66 25 68 25
106 -26 19 -26 54 -86 78 -132 39 -79 42 -89 39 -155 -2 -38 -5 -72 -7 -74 -2
-2 -14 1 -27 7 -20 10 -21 10 -4 -1 11 -7 28 -21 38 -30 15 -15 18 -15 18 -3
0 8 7 15 15 15 8 0 24 18 35 40 26 50 26 65 0 23 -10 -17 -28 -36 -38 -42 -18
-9 -19 -8 -14 12 3 12 9 25 15 28 5 4 4 15 -3 29 -39 72 79 199 310 335 63 38
123 75 133 83 9 9 19 13 22 11 2 -3 9 -45 15 -94 6 -50 26 -166 45 -259 l33
-170 -30 -45 c-54 -80 -141 -193 -181 -237 -41 -44 -42 -45 -122 -13 -11 4
-31 11 -44 14 -32 9 -132 70 -126 77 3 3 -1 18 -9 33 -14 26 -13 32 11 77 14
27 43 67 64 89 22 23 36 45 33 50 -3 6 0 18 8 27 12 15 11 16 -4 4 -9 -7 -42
-51 -73 -97 -31 -47 -61 -85 -65 -85 -5 0 -14 -16 -20 -35 -10 -31 -14 -34
-28 -23 -13 12 -14 11 -2 -8 10 -17 10 -25 -4 -52 -45 -87 -195 -251 -285
-313 -52 -34 -131 -73 -224 -109 -43 -16 -126 -52 -185 -79 -134 -62 -212 -85
-269 -78 -50 5 -75 24 -110 85 -14 24 -27 41 -30 39 -11 -11 28 -77 58 -100
45 -33 167 -94 151 -74 -11 12 -8 16 15 21 16 4 104 43 196 88 137 66 170 79
177 67 8 -12 11 -12 22 2 18 23 104 65 158 78 25 6 110 22 190 36 297 53 363
76 472 170 23 19 48 33 54 31 7 -3 29 -8 48 -12 31 -5 36 -4 36 12 0 15 -2 16
-9 5 -14 -21 -51 -4 -51 24 0 13 4 25 9 27 10 4 130 161 157 206 10 18 21 32
25 32 3 0 11 -19 18 -42 34 -115 88 -188 237 -317 96 -85 101 -91 123 -157 34
-104 86 -189 165 -269 74 -76 129 -104 178 -91 48 12 273 170 297 209 10 16 9
16 -11 5 -12 -7 -31 -23 -41 -36 -27 -32 -57 -46 -70 -33 -17 17 -31 13 -17
-4 11 -13 10 -18 -6 -30 -22 -16 -56 -27 -49 -15 2 4 -4 15 -14 24 -18 16 -19
16 -28 -11 -6 -15 -19 -43 -31 -62 l-20 -33 -17 28 c-9 16 -14 21 -11 11 12
-39 -7 -13 -39 55 -23 48 -36 66 -40 55 -4 -8 1 -29 9 -45 19 -36 18 -82 -1
-75 -7 3 -13 9 -13 15 0 5 -6 8 -12 6 -30 -7 -168 160 -140 170 7 2 12 14 12
27 0 12 7 28 15 35 8 7 15 20 14 29 0 12 -2 11 -9 -4 l-9 -20 0 20 c-1 11 -19
55 -41 98 -36 70 -38 77 -20 77 11 0 20 6 20 14 0 9 -7 13 -19 11 -19 -3 -40
14 -55 45 -4 8 5 2 19 -15 17 -19 25 -23 21 -12 -3 10 -6 22 -6 26 0 4 -11 21
-25 37 -14 16 -25 36 -25 44 0 8 59 -46 130 -120 71 -74 129 -132 130 -128 0
4 -20 27 -44 52 -25 24 -42 47 -39 49 3 3 -34 43 -82 89 l-87 82 5 44 c3 24 9
48 14 53 16 16 212 23 270 10 49 -10 152 -67 153 -83 0 -4 -12 -14 -27 -22
-38 -21 -22 -20 22 1 31 15 35 21 35 54 0 22 -7 42 -17 50 -15 12 -16 12 -9
-6 13 -33 12 -50 -4 -50 -8 0 -16 10 -18 23 -2 13 -9 21 -15 19 -23 -8 -67 24
-86 61 -46 91 -60 181 -65 410 -3 111 0 152 8 148 124 -54 198 -82 329 -127
l159 -53 34 -68 c34 -68 83 -186 111 -266 l14 -43 -43 -40 c-52 -49 -138 -109
-155 -109 -7 0 -13 -4 -13 -8 0 -9 -44 -32 -61 -32 -6 0 -7 5 -4 11 4 6 -2 17
-13 25 -28 20 -84 119 -87 155 -2 35 -19 57 -29 40 -4 -6 11 -49 33 -95 23
-46 41 -89 41 -95 0 -7 9 -22 20 -33 l20 -22 -22 -13 c-22 -12 -21 -12 9 -7
31 6 32 5 73 -79 22 -47 54 -139 71 -204 26 -103 29 -132 26 -223 -2 -58 -11
-159 -20 -225 -9 -66 -20 -160 -26 -210 -22 -204 -68 -263 -205 -266 l-41 -1
33 -9 c43 -13 92 1 162 45 39 24 55 41 56 58 0 12 4 37 7 53 4 17 11 100 17
185 12 174 16 194 36 186 17 -6 19 10 3 20 -22 13 -2 138 42 261 143 406 150
433 126 565 l-13 77 33 34 c31 30 58 97 33 82 -5 -3 -10 -13 -10 -21 0 -8 -4
-12 -10 -9 -5 3 -7 0 -5 -8 7 -17 -27 -48 -42 -39 -6 4 -27 48 -46 97 -19 50
-48 118 -65 151 l-30 60 76 -14 c108 -19 182 -9 346 45 140 46 142 46 209 34
197 -33 413 5 476 85 31 39 28 147 -9 389 -1 6 -5 1 -10 -10 -4 -11 -4 -24 1
-29 16 -17 11 -96 -5 -96 -8 0 -18 -5 -22 -11 -5 -8 1 -10 19 -5 24 6 25 4 23
-27 -4 -47 -5 -49 -16 -42 -5 3 -17 2 -25 -2 -12 -7 -9 -17 20 -61 l36 -52
-28 -11 c-15 -5 -55 -10 -88 -9 -33 1 -69 1 -80 0 -29 -3 30 -17 76 -19 20 0
42 -8 49 -16 9 -10 9 -15 1 -15 -6 0 -19 -8 -29 -18 -19 -19 -96 -40 -169 -46
-37 -3 -46 1 -70 28 -15 17 -27 34 -26 38 3 8 -41 17 -92 19 -81 2 -127 11
-116 22 16 16 14 42 -1 30 -7 -5 -22 -9 -33 -9 -11 1 -23 -3 -27 -9 -5 -6 -8
-6 -8 1 0 9 -12 9 -42 3 -26 -6 -45 -6 -51 0 -10 10 -12 10 206 61 76 18 135
35 133 38 -3 2 -27 -1 -55 -8 -28 -6 -54 -9 -60 -6 -5 3 -49 -7 -98 -23 -143
-48 -152 -48 -191 -8 l-34 35 41 83 c60 124 105 177 178 214 39 20 64 28 67
21 2 -6 5 -2 5 10 1 28 -29 54 -62 54 -37 0 -41 -15 -5 -17 17 -1 33 -4 35 -7
11 -10 -10 -26 -33 -26 -13 0 -24 -4 -24 -9 0 -5 -16 -16 -36 -26 -26 -12 -48
-15 -84 -10 -73 10 -193 56 -290 110 -47 26 -114 62 -149 80 l-64 31 39 24
c45 27 105 76 260 212 l112 98 64 0 c82 0 292 -27 296 -39 1 -4 13 -6 26 -4
19 4 24 -2 35 -38 14 -46 32 -265 24 -286 -4 -10 -9 -11 -19 -2 -11 9 -18 8
-29 -1 -21 -17 -173 -10 -184 9 -5 8 -14 10 -22 6 -7 -5 -26 -11 -43 -15 -26
-6 -21 -8 34 -13 36 -4 90 -10 120 -13 30 -4 74 -6 98 -6 39 1 42 -1 43 -26 1
-27 1 -27 8 3 8 38 25 41 149 25 190 -24 363 -93 479 -192 32 -27 110 -86 173
-131 136 -96 225 -181 238 -228 9 -30 10 -24 10 41 1 41 -3 67 -7 57 -6 -17
-10 -15 -41 12 -19 17 -97 73 -173 124 -105 70 -137 96 -133 109 3 13 -2 18
-14 18 -26 0 -96 49 -146 102 -22 24 -93 104 -156 178 -174 205 -225 246 -351
289 -46 16 -50 20 -68 71 -17 49 -32 69 -51 70 -4 0 -5 -7 -2 -15 4 -8 11 -12
16 -9 6 4 9 1 6 -7 -3 -8 1 -20 9 -27 17 -17 17 -38 -1 -45 -8 -3 -54 1 -103
9 -48 7 -113 14 -143 14 -83 0 -86 8 -35 70 72 87 100 159 138 348 24 119 25
120 82 187 125 148 198 383 142 459 -7 9 -58 40 -115 70 -104 55 -159 76 -147
56 3 -5 12 -10 20 -10 18 0 26 -25 12 -39 -8 -8 -7 -11 6 -11 9 0 17 7 17 15
0 20 12 19 44 -6 24 -19 38 -48 16 -34 -5 3 -10 -3 -10 -13 0 -18 5 -20 60
-15 l61 6 -5 -35 c-2 -19 -18 -55 -36 -81 -17 -26 -30 -53 -28 -59 3 -7 19 9
37 35 17 26 38 47 45 47 19 0 27 -62 14 -102 -46 -139 -52 -146 -109 -154 -49
-7 -78 -33 -132 -121 -32 -54 -47 -65 -47 -38 0 8 -7 15 -16 15 -11 0 -14 -5
-9 -17 8 -22 13 -41 8 -31 -8 14 -41 -27 -50 -62 -5 -20 -17 -36 -26 -38 -14
-3 -13 6 9 70 34 100 85 280 80 285 -4 5 -36 -96 -37 -119 0 -7 -4 -4 -9 7 -6
17 -9 13 -14 -20 -10 -58 -25 -123 -42 -183 -13 -45 -20 -56 -49 -68 -19 -8
-41 -14 -49 -14 -19 0 -79 83 -128 178 -39 75 -40 79 -35 158 3 45 2 87 -2 93
-9 14 -71 -39 -71 -61 1 -8 8 -4 19 10 11 12 24 22 30 22 17 0 13 -28 -6 -39
-14 -8 -15 -12 -4 -25 20 -24 7 -82 -30 -129 -56 -72 -150 -142 -345 -259
l-91 -55 -6 69 c-3 38 -23 155 -43 260 l-37 192 23 41 c21 37 136 191 194 259
l25 30 71 -22 c71 -21 193 -83 190 -96 -1 -4 2 -11 6 -14 4 -4 4 -1 0 6 -9 15
6 16 22 0 16 -16 15 -29 -1 -22 -9 3 -13 -6 -13 -29 0 -24 -13 -52 -45 -98
-25 -35 -50 -63 -55 -62 -6 1 -11 -10 -12 -24 -2 -24 -1 -25 15 -10 10 9 36
45 58 81 22 36 47 68 56 71 9 3 19 19 23 36 4 24 10 30 22 25 14 -5 15 -4 4 9
-10 12 -7 23 15 62 92 159 282 328 425 379 62 22 66 24 230 97 181 80 211 90
282 91 50 1 61 -3 87 -28 17 -16 38 -45 47 -65 10 -20 19 -31 21 -24 7 19 -25
70 -59 96 -38 29 -143 83 -135 69 3 -4 -17 -17 -46 -27 -29 -10 -109 -47 -179
-82 -153 -75 -178 -83 -179 -57 0 16 -2 15 -9 -3 -16 -39 -120 -78 -285 -108
-360 -65 -427 -87 -527 -169 -57 -46 -57 -46 -103 -36 -47 10 -95 5 -95 -11 0
-5 9 -9 21 -9 11 0 17 4 14 10 -6 10 20 7 62 -5 20 -6 9 -31 -42 -96 -28 -35
-71 -94 -96 -132 l-47 -69 -21 65 c-38 113 -89 177 -263 330 -56 49 -78 76
-83 99 -4 18 -27 75 -52 127 -37 77 -59 109 -122 171 -79 79 -130 107 -175 96
-23 -6 -166 -95 -216 -136 -62 -49 -104 -89 -94 -90 5 0 21 10 34 23 13 12 37
32 53 44 l30 22 29 -21 30 -21 -13 22 c-8 11 -17 21 -21 21 -5 0 -8 5 -8 10 0
6 7 10 15 10 8 0 15 5 15 10 0 6 9 10 21 10 11 0 18 -4 15 -8 -2 -4 4 -13 14
-20 16 -10 21 -5 45 43 28 58 43 68 52 34 4 -15 8 -17 14 -8 5 8 17 -9 36 -49
15 -34 33 -64 40 -67 9 -3 8 6 -3 33 -10 20 -19 52 -22 70 -3 26 -1 31 12 26
9 -3 16 -10 16 -16 0 -5 5 -6 11 -3 15 10 128 -113 138 -149 4 -17 4 -32 -1
-34 -4 -2 -8 -12 -8 -22 0 -9 -7 -23 -16 -31 -13 -10 -17 -10 -25 2 -5 8 -9 9
-9 2 0 -11 22 -38 37 -45 5 -1 21 -30 37 -63 16 -33 31 -55 33 -48 2 7 -1 21
-7 32 -8 16 -8 21 2 21 17 0 66 -94 74 -140 5 -33 5 -34 -10 -16 -9 11 -16 25
-16 30 0 6 -10 22 -21 36 l-20 25 7 -24 c5 -21 3 -23 -15 -18 -11 3 -24 1 -27
-4 -3 -5 1 -9 9 -9 8 0 20 -13 27 -30 7 -16 23 -42 36 -57 13 -16 24 -35 24
-43 0 -8 -58 44 -128 116 -70 72 -113 115 -97 95 17 -20 36 -39 43 -44 7 -5
10 -12 7 -17 -3 -5 36 -48 86 -97 l91 -88 -12 -47 c-11 -43 -16 -48 -46 -54
-18 -3 -87 -5 -151 -3 -118 4 -118 4 -178 43 -33 22 -62 41 -64 43 -3 2 4 10
15 19 17 13 15 13 -13 -1 -40 -19 -43 -51 -12 -101 27 -44 32 -43 13 2 -16 37
-12 70 6 59 5 -3 10 -14 10 -24 0 -13 10 -21 35 -25 53 -10 92 -78 115 -201
12 -62 27 -415 18 -415 -3 0 -34 13 -69 29 -35 15 -146 56 -246 91 l-182 63
-35 71 c-40 84 -85 190 -96 228 -7 21 -5 28 8 31 12 3 10 5 -5 6 -63 3 22 112
132 168 28 14 52 29 55 33 6 8 46 30 55 30 4 0 5 -6 2 -14 -3 -8 4 -21 17 -30
38 -24 109 -176 83 -176 -7 0 -4 -5 6 -11 37 -22 37 -1 -2 77 -23 45 -41 90
-41 101 0 10 -9 27 -21 36 -11 10 -18 24 -16 31 3 8 -1 13 -10 12 -18 -1 -83
122 -112 214 -47 147 -64 319 -41 400 6 19 19 121 30 226 29 278 56 343 150
363 28 6 63 8 77 5 18 -5 24 -3 19 5 -4 6 -29 11 -55 11 -37 0 -60 -8 -108
-37z m-152 -864 c9 -17 7 -25 -12 -45 -26 -28 -39 -31 -39 -8 0 14 30 74 37
74 1 0 7 -9 14 -21z m745 -54 c2 -50 -10 -52 -20 -3 -4 21 -2 34 6 40 7 4 13
8 13 8 0 0 1 -20 1 -45z m1211 -76 l28 -11 -27 -14 c-20 -11 -33 -11 -59 -2
-30 10 -31 12 -14 25 23 16 35 16 72 2z m-1922 -33 c32 -21 75 -66 75 -78 0
-8 -61 25 -98 53 -13 10 -30 15 -38 12 -9 -3 -14 1 -14 13 0 14 -7 11 -35 -16
-37 -36 -50 -22 -14 16 26 28 83 28 124 0z m1761 -1 c18 -15 17 -16 -16 -9
-44 8 -63 24 -29 24 14 0 34 -7 45 -15z m-58 -20 c13 -10 28 -39 38 -73 14
-48 15 -66 5 -121 -7 -36 -14 -68 -17 -73 -3 -4 -55 18 -117 50 -62 32 -130
65 -151 73 l-39 14 47 38 c69 57 156 107 186 107 14 0 35 -7 48 -15z m102 -60
c0 -37 -17 -94 -34 -113 -9 -9 -10 2 -5 45 3 32 9 67 13 78 6 16 6 17 -3 5
-12 -17 -15 -2 -5 24 10 26 34 -1 34 -39z m-1788 14 c48 -24 108 -77 108 -95
0 -7 -33 -32 -72 -55 -40 -23 -97 -61 -127 -85 -29 -24 -57 -44 -61 -44 -11 0
-30 116 -30 181 0 119 67 155 182 98z m738 -31 c15 -21 17 -28 6 -19 -16 13
-41 51 -33 51 2 0 14 -15 27 -32z m198 -99 c-13 -8 -28 7 -28 30 0 11 5 10 20
-4 15 -14 17 -20 8 -26z m-62 -184 c41 -55 130 -205 138 -232 5 -16 -7 -59
-39 -138 -70 -174 -111 -309 -134 -435 -11 -62 -22 -115 -24 -117 -2 -2 -24
33 -48 78 -24 44 -55 97 -68 117 -13 20 -17 31 -9 24 24 -19 27 -4 7 36 -27
53 -24 70 14 81 l32 9 -32 1 -33 1 0 78 c0 105 15 221 50 382 30 136 36 146
85 161 23 7 21 8 61 -46z m174 20 c0 -8 6 -15 14 -15 8 0 17 -7 20 -16 3 -8 2
-12 -4 -9 -15 9 -12 -19 5 -41 18 -24 19 -54 1 -54 -9 0 -12 -7 -9 -20 8 -30
-12 -24 -40 13 -22 29 -62 126 -55 132 34 26 68 31 68 10z m-473 -117 c-3 -8
-6 -5 -6 6 -1 11 2 17 5 13 3 -3 4 -12 1 -19z m113 -148 c-10 -58 -18 -100
-19 -95 -1 6 -6 3 -11 -5 -16 -25 -12 102 5 130 8 14 20 38 26 53 6 15 13 27
14 25 2 -2 -5 -50 -15 -108z m370 58 c0 -20 -18 -5 -23 19 -5 26 -4 26 9 8 8
-10 14 -22 14 -27z m56 -96 c8 -7 14 -24 14 -38 0 -13 4 -24 8 -24 5 0 9 -14
10 -30 1 -26 -1 -28 -14 -16 -8 8 -14 24 -14 35 0 12 -4 21 -8 21 -12 0 -28
53 -23 80 4 21 5 22 9 6 2 -11 10 -26 18 -34z m1100 -13 c-25 -28 -43 -56 -39
-62 3 -6 1 -7 -5 -3 -8 4 -12 0 -12 -10 0 -18 -57 -84 -73 -84 -4 0 1 13 12
29 12 16 21 34 21 39 0 19 114 142 132 142 5 0 -11 -23 -36 -51z m-1141 -105
c19 -74 19 -191 -1 -274 -17 -74 -60 -154 -76 -144 -6 4 -8 3 -5 -3 14 -23
-129 -154 -147 -136 -13 14 -4 107 18 194 33 127 69 224 128 349 55 115 56
115 83 14z m-1195 10 c0 -15 2 -15 24 -1 22 15 24 15 29 -3 3 -14 11 -18 27
-15 17 3 21 0 17 -14 -3 -12 1 -18 11 -17 8 0 17 -4 19 -11 7 -18 -79 -27
-137 -13 -29 7 -50 18 -50 25 0 28 13 45 34 45 17 0 18 2 6 10 -13 8 -12 10 3
10 9 0 17 -7 17 -16z m713 -48 c1 -31 -1 -56 -5 -56 -8 0 -11 28 -10 80 0 38
1 44 8 37 3 -3 7 -31 7 -61z m64 -18 c-2 -18 -4 -6 -4 27 0 33 2 48 4 33 2
-15 2 -42 0 -60z m-1007 54 c0 -4 -12 -9 -27 -10 -26 -2 -26 -1 -8 12 19 14
35 13 35 -2z m160 -27 c0 -8 -8 -15 -17 -14 -11 0 -13 3 -5 6 6 2 10 9 6 14
-3 5 0 9 5 9 6 0 11 -7 11 -15z m2280 11 c0 -2 -7 -9 -15 -16 -13 -11 -14 -10
-9 4 5 14 24 23 24 12z m-2722 -51 c34 -1 65 -5 69 -8 3 -4 14 -7 24 -7 10 0
21 -5 25 -12 9 -14 -138 -5 -209 13 -63 15 -76 35 -16 24 24 -5 72 -9 107 -10z
m665 -24 c10 -11 7 -12 -13 -6 -33 10 -46 22 -20 20 11 -1 26 -7 33 -14z m135
13 c14 -4 22 -14 22 -27 0 -16 -3 -18 -12 -9 -15 15 -32 16 -23 2 8 -13 -5
-13 -25 0 -11 7 -11 10 -2 10 7 0 10 5 7 10 -5 8 -11 8 -20 0 -9 -8 -14 -6
-19 5 -6 16 28 20 72 9z m68 -25 c10 -17 -13 -36 -27 -22 -12 12 -4 33 11 33
5 0 12 -5 16 -11z m-756 -19 c0 -5 -4 -10 -10 -10 -5 0 -10 5 -10 10 0 6 5 10
10 10 6 0 10 -4 10 -10z m797 4 c-3 -3 -12 -4 -19 -1 -8 3 -5 6 6 6 11 1 17
-2 13 -5z m-197 -44 c8 -10 37 -47 65 -82 107 -137 237 -276 319 -343 85 -69
103 -90 69 -79 -14 5 -15 4 -4 -4 8 -6 20 -8 28 -5 7 3 16 -2 19 -11 3 -9 10
-13 15 -10 5 3 9 0 9 -5 0 -14 -5 -14 -69 8 -38 13 -48 20 -35 24 10 2 -16 6
-58 7 -43 1 -93 3 -112 4 -22 1 -32 5 -29 14 3 6 11 12 18 12 8 0 17 4 20 10
6 10 -22 3 -40 -11 -11 -8 -73 2 -93 15 -8 4 -7 19 3 47 8 22 10 37 5 34 -6
-3 -10 -12 -10 -19 0 -7 -6 -20 -13 -30 -12 -17 -15 -17 -52 5 -106 61 -236
161 -364 281 -70 65 -73 70 -68 104 4 20 9 39 12 42 8 8 234 20 295 15 37 -3
60 -11 70 -23z m239 -53 c94 -45 197 -138 220 -198 8 -19 22 -52 32 -75 11
-22 22 -68 25 -102 6 -55 5 -62 -11 -62 -38 0 -178 127 -296 270 -42 50 -159
215 -159 224 0 13 119 -22 189 -57z m1575 28 c14 -13 26 -31 26 -39 0 -18
-111 -235 -141 -275 -19 -26 -29 -29 -122 -41 -194 -24 -390 -71 -563 -137
-14 -5 -13 51 0 64 5 4 6 3 2 -4 -4 -7 -5 -13 -3 -13 2 0 26 34 53 75 27 41
52 75 56 75 4 0 9 -12 11 -27 3 -23 4 -22 6 8 1 26 10 47 32 70 l30 33 30 -32
c36 -39 48 -42 20 -6 -12 15 -21 33 -21 40 0 22 238 131 399 184 80 27 149 49
152 49 3 1 18 -10 33 -24z m-1299 -5 c3 -5 2 -10 -4 -10 -5 0 -13 5 -16 10 -3
6 -2 10 4 10 5 0 13 -4 16 -10z m1091 -8 c-10 -10 -181 -70 -188 -66 -28 18
85 71 148 70 23 -1 41 -2 40 -4z m420 -29 c-11 -11 -17 4 -9 23 7 18 8 18 11
1 2 -10 1 -21 -2 -24z m-681 7 c-4 -6 -10 -8 -14 -6 -4 3 -20 -6 -36 -20 -15
-13 -33 -24 -39 -24 -18 1 58 59 77 60 10 0 15 -5 12 -10z m-265 -30 c0 -5 -5
-10 -11 -10 -5 0 -7 5 -4 10 3 6 8 10 11 10 2 0 4 -4 4 -10z m-18 -52 c-8 -8
-9 -4 -5 13 4 13 8 18 11 10 2 -7 -1 -18 -6 -23z m284 1 c-27 -16 -50 -28 -53
-25 -7 6 69 56 86 56 8 0 -7 -14 -33 -31z m-189 -31 c-3 -8 -6 -5 -6 6 -1 11
2 17 5 13 3 -3 4 -12 1 -19z m-1294 -134 c16 -13 26 -28 22 -34 -14 -23 -138
69 -128 96 3 8 1 14 -5 14 -5 0 -12 7 -16 15 -5 13 48 -24 127 -91z m2057 56
c-14 -27 -12 -34 5 -20 8 7 15 8 15 2 0 -13 -25 -33 -33 -26 -3 3 -11 3 -17
-1 -9 -6 -9 -10 1 -16 11 -7 10 -9 -3 -9 -9 0 -19 -8 -23 -19 -4 -14 -15 -18
-45 -18 -22 0 -40 1 -40 3 0 17 41 86 68 116 33 35 36 36 58 21 19 -12 22 -19
14 -33z m-1189 -135 c-2 -5 -4 -15 -5 -22 -1 -7 -5 -15 -9 -19 -6 -7 -12 12
-22 81 l-6 40 23 -35 c12 -19 21 -39 19 -45z m1037 45 c-12 -19 -28 -27 -28
-14 0 6 30 33 38 34 1 0 -3 -9 -10 -20z m-1780 -58 c12 -8 21 -16 19 -18 -5
-5 -87 35 -87 42 0 8 42 -7 68 -24z m860 -12 c-11 -18 -38 -36 -38 -25 0 5 42
45 47 45 2 0 -2 -9 -9 -20z m-272 -47 c1 -7 -1 -13 -6 -13 -10 0 -20 26 -20
48 1 14 3 14 12 -3 7 -11 13 -26 14 -32z m1034 11 c-63 -64 -80 -79 -143 -117
-74 -45 -176 -77 -247 -77 -45 0 -51 2 -46 18 5 15 5 15 -7 1 -11 -14 -18 -15
-64 -3 -80 20 -123 41 -123 59 0 47 397 149 558 144 28 -1 55 1 59 4 3 4 15 7
27 7 18 0 16 -4 -14 -36z m-1675 -4 c28 -16 47 -30 44 -30 -14 0 -83 32 -96
46 -23 22 -2 16 52 -16z m1759 24 c9 -3 16 -12 16 -18 0 -16 -44 -58 -52 -50
-3 3 -9 1 -13 -5 -3 -6 -1 -11 6 -11 8 0 8 -4 -1 -15 -7 -8 -16 -13 -20 -10
-4 3 -10 -2 -14 -10 -6 -17 -36 -20 -36 -4 0 6 7 8 16 5 14 -5 15 -4 4 9 -11
13 -10 14 5 8 14 -5 17 -3 12 10 -4 10 -2 16 5 14 7 -1 17 8 23 21 5 12 18 25
27 28 10 3 18 10 18 15 0 6 -4 7 -10 4 -5 -3 -10 -1 -10 4 0 13 3 13 24 5z
m775 -112 c84 -52 91 -105 23 -172 -33 -33 -131 -80 -166 -80 -10 0 -15 32
-20 128 -3 70 -9 144 -12 165 l-6 38 68 -26 c37 -14 88 -38 113 -53z m-1473
42 c-3 -9 -6 -17 -6 -20 0 -10 -60 -33 -65 -25 -7 13 12 24 27 15 7 -5 8 -3 4
5 -5 7 0 18 10 26 25 19 38 19 30 -1z m-2206 -33 c12 -23 13 -71 2 -71 -8 0
-52 71 -52 84 0 15 40 4 50 -13z m341 -3 c0 -2 4 -68 9 -148 4 -80 11 -154 16
-164 6 -17 4 -18 -22 -12 -16 3 -67 25 -114 49 -103 52 -129 85 -107 139 20
48 88 103 150 121 54 16 67 19 68 15z m939 -2 c0 -2 -7 -6 -15 -10 -8 -3 -15
-1 -15 4 0 6 7 10 15 10 8 0 15 -2 15 -4z m-1050 -13 c-8 -3 -28 -15 -43 -25
-15 -11 -35 -17 -43 -14 -8 3 -13 2 -10 -3 3 -4 -3 -16 -13 -25 -15 -14 -20
-14 -29 -3 -23 27 57 75 123 75 17 0 23 -2 15 -5z m1996 -88 c18 -14 18 -15
-6 -11 -14 3 -29 5 -33 5 -10 1 1 21 12 21 4 0 16 -7 27 -15z m1574 -44 c0
-35 -18 -14 -26 29 -5 33 -5 34 10 16 9 -11 16 -31 16 -45z m-3701 -23 c1 -5
-3 -8 -9 -8 -11 0 -29 61 -22 74 5 8 29 -44 31 -66z m1841 42 c0 -5 -4 -10
-10 -10 -5 0 -10 5 -10 10 0 6 5 10 10 10 6 0 10 -4 10 -10z m680 -14 c0 -3
-4 -8 -10 -11 -5 -3 -10 -1 -10 4 0 6 5 11 10 11 6 0 10 -2 10 -4z m-1140 -13
c0 -5 20 -9 44 -9 57 -2 158 -47 150 -68 -6 -16 -115 -63 -178 -76 -23 -4 -66
-15 -96 -23 -71 -20 -183 -36 -293 -42 l-89 -6 36 44 c61 75 200 157 298 176
56 11 128 13 128 4z m203 -7 c5 -12 1 -13 -24 -4 -35 12 -37 18 -5 18 13 0 26
-6 29 -14z m894 -2 c-3 -3 -12 -4 -19 -1 -8 3 -5 6 6 6 11 1 17 -2 13 -5z
m1192 -13 c19 -12 2 -34 -42 -54 -39 -18 -97 -29 -97 -19 0 4 21 18 48 32 26
13 51 30 55 37 9 15 17 16 36 4z m128 -64 l23 -37 -25 0 c-26 0 -45 25 -45 60
0 30 19 21 47 -23z m-2827 -3 c0 -15 -39 -54 -45 -44 -12 20 -25 9 -21 -19 2
-20 -1 -28 -9 -25 -13 5 -45 -21 -45 -37 0 -5 -5 -9 -10 -9 -15 0 12 48 55 98
20 23 45 42 56 42 10 0 19 -3 19 -6z m1105 -7 c24 -16 101 -34 175 -43 76 -8
89 -12 70 -25 -10 -6 -2 -7 25 -3 22 3 52 1 67 -5 25 -9 26 -12 16 -41 -14
-41 -4 -49 12 -10 14 34 22 37 40 15 7 -8 17 -15 22 -15 14 0 176 -113 238
-165 30 -26 87 -78 127 -116 69 -65 71 -70 63 -100 -5 -17 -12 -34 -15 -37
-10 -11 -118 -19 -234 -18 l-113 1 -27 35 c-72 95 -186 232 -245 294 -36 38
-62 74 -59 79 3 6 1 7 -5 3 -17 -10 -170 118 -164 136 1 4 -5 8 -13 8 -8 0
-15 5 -15 10 0 14 12 13 35 -3z m-452 -13 c-3 -9 -12 -13 -21 -9 -9 3 -13 3
-9 -1 9 -10 -43 -65 -55 -58 -4 3 -8 0 -8 -5 0 -6 -8 -20 -17 -30 -39 -42 -78
-104 -75 -119 3 -13 0 -13 -12 3 -12 16 -15 17 -16 4 0 -8 -14 -28 -31 -45
l-31 -29 -22 25 c-12 14 -31 32 -41 40 -18 13 -18 12 1 -10 55 -64 56 -62 -79
-129 -68 -34 -193 -84 -279 -112 l-155 -52 -32 22 c-17 12 -31 29 -31 37 0 19
104 218 142 270 28 40 32 41 98 48 169 15 443 81 593 141 13 6 16 3 11 -9 -3
-9 -1 -16 5 -16 6 0 10 5 9 12 -2 6 8 17 22 25 33 17 41 16 33 -3z m867 6 c-8
-5 -19 -10 -25 -10 -5 0 -3 5 5 10 8 5 20 10 25 10 6 0 3 -5 -5 -10z m-381
-74 c94 -70 351 -362 351 -399 0 -6 10 -21 22 -34 12 -13 20 -25 17 -27 -10
-10 -110 17 -174 48 -72 34 -159 99 -148 110 4 3 -1 6 -10 6 -23 0 -81 92
-106 167 -33 98 -34 155 -2 162 2 1 24 -14 50 -33z m506 8 c37 -15 65 -36 65
-48 0 -6 -41 15 -50 25 -3 3 -18 13 -35 22 -39 21 -28 21 20 1z m-617 -26 c2
-25 0 -29 -8 -18 -12 18 -13 50 -2 50 4 0 9 -15 10 -32z m-268 -28 c-14 -10
-27 -17 -29 -15 -8 8 22 35 38 35 12 0 10 -5 -9 -20z m120 -7 c0 -10 3 -36 6
-58 l6 -40 -21 33 c-23 35 -27 62 -10 62 5 0 7 5 4 10 -3 6 -1 10 4 10 6 0 11
-8 11 -17z m785 -29 c11 -8 14 -14 8 -14 -14 0 -82 36 -98 51 -13 13 64 -19
90 -37z m-842 -44 c-3 -58 -20 -133 -59 -255 -31 -96 -103 -265 -114 -265 -4
0 -10 -13 -13 -30 -10 -46 -22 -36 -43 33 -23 74 -25 225 -5 304 17 69 69 152
83 132 7 -11 8 -9 4 6 -9 31 109 141 139 131 6 -2 9 -27 8 -56z m-1023 20 c0
-26 -34 -88 -67 -121 -34 -36 -35 -37 -54 -18 -13 13 -17 27 -13 49 4 16 10
30 15 30 5 0 9 7 9 15 0 8 6 12 14 9 8 -3 17 0 22 7 4 8 3 10 -4 5 -7 -4 -12
-3 -12 2 0 15 43 23 52 9 5 -8 8 -7 8 6 0 9 7 17 15 17 8 0 15 -5 15 -10z m28
-15 c-12 -14 -23 -23 -25 -21 -8 7 22 46 34 46 8 0 4 -10 -9 -25z m1101 -123
c25 -62 28 -73 13 -68 -16 6 -16 5 0 -8 20 -15 51 -93 42 -107 -3 -5 -18 -9
-33 -9 -15 0 -36 -7 -47 -16 -18 -14 -18 -15 4 -4 13 6 35 10 50 8 l27 -3 -3
-110 c-3 -105 -35 -308 -67 -431 -17 -67 -14 -62 -53 -73 -26 -8 -34 -5 -55
17 -30 33 -106 151 -142 222 l-26 52 55 136 c70 175 99 271 128 416 l22 117
27 -32 c15 -18 41 -66 58 -107z m850 87 c29 -23 49 -44 47 -47 -3 -3 -1 -11 6
-19 28 -34 -4 -17 -70 36 -66 54 -77 71 -47 71 7 0 36 -19 64 -41z m-2105
-129 c-6 -6 -10 -2 -11 12 -2 16 1 18 10 9 7 -7 8 -14 1 -21z m601 -23 c-57
-39 -78 -51 -71 -39 9 16 66 52 81 52 5 0 1 -6 -10 -13z m146 -10 c-10 -9 -11
-8 -5 6 3 10 9 15 12 12 3 -3 0 -11 -7 -18z m-253 -44 c-5 -29 -85 -62 -146
-60 l-54 1 94 37 c110 44 110 44 106 22z m172 13 c0 -10 -69 -54 -95 -60 -28
-7 -29 -6 -10 7 19 14 97 57 102 57 2 0 3 -2 3 -4z m180 -21 c-7 -9 -15 -13
-19 -10 -3 3 1 10 9 15 21 14 24 12 10 -5z m663 -9 c4 -10 1 -13 -8 -9 -8 3
-12 9 -9 14 7 12 11 11 17 -5z m-1603 -15 c0 -5 -7 -14 -15 -21 -12 -10 -15
-10 -15 2 0 8 3 18 7 21 9 10 23 9 23 -2z m1510 -42 c0 -6 -4 -7 -10 -4 -5 3
-10 11 -10 16 0 6 5 7 10 4 6 -3 10 -11 10 -16z m330 -59 c0 -5 -12 -10 -27
-9 -25 0 -26 1 -8 9 27 12 35 12 35 0z m40 -16 c0 -8 -9 -14 -20 -14 -17 0
-19 3 -8 19 13 21 28 19 28 -5z m50 6 c-12 -7 -11 -10 5 -16 11 -4 25 -10 30
-12 6 -3 4 2 -4 11 -12 15 -12 17 2 11 8 -3 18 -12 21 -20 5 -12 -4 -15 -44
-13 -40 2 -50 6 -50 20 0 10 8 20 18 22 30 8 38 7 22 -3z m835 -25 c49 -8 95
-25 95 -35 0 -4 -21 -1 -47 5 -27 7 -69 11 -94 8 -46 -5 -119 11 -119 27 0 9
100 6 165 -5z m-1331 -58 c3 -32 1 -57 -5 -57 -5 0 -9 28 -9 62 0 75 8 72 14
-5z m71 12 c2 -24 0 -60 -4 -79 -7 -28 -9 -19 -10 49 -1 88 7 105 14 30z m590
41 c18 -8 17 -9 -7 -9 -15 -1 -30 4 -33 9 -7 12 12 12 40 0z m125 -25 c48 -10
50 -12 39 -43 -8 -25 -13 -27 -49 -24 -22 2 -40 0 -40 -5 0 -5 -7 -10 -15 -10
-8 0 -15 6 -15 14 0 7 -6 13 -13 13 -14 0 -47 35 -47 50 0 5 17 10 38 13 38 4
44 3 102 -8z m-1805 -5 c-3 -5 -11 -10 -16 -10 -6 0 -7 5 -4 10 3 6 11 10 16
10 6 0 7 -4 4 -10z m-434 -37 c-28 -56 -109 -156 -137 -171 -33 -18 -30 2 5
30 16 13 44 48 62 78 27 45 75 100 87 100 1 0 -6 -17 -17 -37z m42 7 c3 -11 1
-18 -4 -14 -5 3 -9 12 -9 20 0 20 7 17 13 -6z m2277 11 c0 -6 -4 -13 -10 -16
-5 -3 -10 1 -10 9 0 9 5 16 10 16 6 0 10 -4 10 -9z m-1354 -16 c-3 -10 1 -15
12 -15 15 0 15 -2 2 -10 -12 -8 -12 -10 -1 -10 10 0 12 -9 8 -36 -3 -20 -3
-34 0 -30 11 11 33 -32 26 -50 -4 -12 -3 -15 5 -10 7 4 12 2 12 -3 0 -6 -6
-11 -14 -11 -20 0 -46 45 -46 80 0 16 -4 30 -8 30 -10 0 -14 59 -6 72 9 14 16
9 10 -7z m1534 -14 c0 -16 -28 -20 -34 -5 -4 9 1 14 14 14 11 0 20 -4 20 -9z
m-270 -25 c0 -11 -19 -15 -25 -6 -3 5 1 10 9 10 9 0 16 -2 16 -4z m-779 -126
c-6 -38 -17 -67 -26 -72 -8 -5 -15 -19 -15 -30 0 -12 -3 -18 -6 -15 -4 4 -1
41 6 84 7 43 14 87 16 98 1 11 3 22 3 25 1 2 8 -3 16 -11 14 -13 14 -26 6 -79z
m-381 -100 c0 -13 -1 -13 -10 0 -5 8 -10 22 -10 30 0 13 1 13 10 0 5 -8 10
-22 10 -30z m35 -108 c21 -62 19 -70 -12 -74 -25 -3 -31 3 -51 45 -23 47 -36
63 -26 30 5 -15 4 -15 -4 -3 -8 10 -8 18 0 27 7 9 7 13 -2 13 -15 0 -7 25 8
26 25 3 27 5 13 13 -8 5 -10 14 -6 22 12 18 60 -42 80 -99z m425 31 c-11 -17
-11 -17 -6 0 3 10 6 24 7 30 0 9 2 9 5 0 3 -7 0 -20 -6 -30z m739 -163 c6 -28
11 -86 11 -129 0 -64 -4 -81 -20 -99 -29 -31 -61 -36 -122 -18 -54 16 -148 86
-148 110 0 7 19 23 43 36 72 40 171 107 191 129 11 11 23 21 27 21 4 0 12 -23
18 -50z m-1825 5 c3 -8 2 -15 -3 -15 -5 0 -14 7 -21 15 -10 12 -10 15 3 15 8
0 17 -7 21 -15z m45 -58 c42 -24 104 -55 138 -68 l62 -24 -32 -33 c-46 -49
-157 -112 -195 -112 -35 0 -67 26 -82 66 -21 55 -5 214 22 214 6 0 45 -20 87
-43z m-140 -73 c-8 -10 -8 -14 0 -14 10 0 9 -55 -2 -66 -3 -3 -1 -19 3 -35 7
-23 5 -29 -6 -29 -19 0 -35 45 -28 78 13 60 26 92 35 86 6 -4 6 -11 -2 -20z
m841 0 c0 -8 -6 -11 -15 -8 -8 4 -15 12 -15 20 0 8 6 11 15 8 8 -4 15 -12 15
-20z m200 -177 c0 -8 3 -17 7 -21 10 -9 33 -78 33 -98 0 -10 -4 -18 -10 -18
-5 0 -10 9 -10 20 0 11 -7 37 -17 58 -9 20 -15 40 -15 45 1 4 -3 7 -8 7 -14 0
-32 46 -37 90 -4 35 -4 35 27 -17 16 -29 30 -58 30 -66z m700 63 c21 -11 41
-24 45 -30 3 -5 17 -10 31 -10 15 0 24 -6 24 -15 0 -45 -80 -18 -126 42 -29
38 -27 40 26 13z m164 -43 c-6 -17 -54 -52 -54 -40 0 9 52 64 57 59 2 -2 1
-10 -3 -19z m-1850 -12 c20 -4 26 -9 17 -14 -17 -11 -58 -2 -73 17 -11 13 -10
14 7 9 11 -3 33 -8 49 -12z m-135 -14 c23 -14 2 -31 -38 -31 -44 0 -55 8 -40
27 13 15 57 17 78 4z m1924 -134 c-22 -37 -37 -41 -41 -10 -4 26 51 83 56 58
2 -9 -5 -30 -15 -48z"/>
<path d="M3130 3507 c0 -10 8 -17 18 -17 9 0 13 4 7 8 -5 4 -13 11 -17 16 -5
5 -8 2 -8 -7z"/>
<path d="M2564 3238 l-19 -23 23 19 c12 11 22 21 22 23 0 8 -8 2 -26 -19z"/>
<path d="M2636 3365 c-9 -26 -7 -32 5 -12 6 10 9 21 6 23 -2 3 -7 -2 -11 -11z"/>
<path d="M3480 3140 c6 -11 16 -20 22 -20 6 0 3 9 -7 20 -10 11 -20 20 -22 20
-2 0 1 -9 7 -20z"/>
<path d="M3505 3150 c3 -5 8 -10 11 -10 2 0 4 5 4 10 0 6 -5 10 -11 10 -5 0
-7 -4 -4 -10z"/>
<path d="M2496 2866 c3 -9 11 -16 16 -16 13 0 5 23 -10 28 -7 2 -10 -2 -6 -12z"/>
<path d="M3270 2840 c0 -5 7 -7 15 -4 8 4 15 8 15 10 0 2 -7 4 -15 4 -8 0 -15
-4 -15 -10z"/>
<path d="M3426 2754 c-5 -14 -4 -15 9 -4 17 14 19 20 6 20 -5 0 -12 -7 -15
-16z"/>
<path d="M3357 2640 c-3 -11 -1 -20 4 -20 5 0 9 9 9 20 0 11 -2 20 -4 20 -2 0
-6 -9 -9 -20z"/>
<path d="M3250 2646 c0 -2 8 -10 18 -17 15 -13 16 -12 3 4 -13 16 -21 21 -21
13z"/>
<path d="M2850 2501 c0 -13 29 -35 37 -27 3 3 1 6 -6 6 -8 0 -11 7 -7 15 3 9
0 15 -9 15 -8 0 -15 -4 -15 -9z"/>
<path d="M2988 2503 c7 -3 16 -2 19 1 4 3 -2 6 -13 5 -11 0 -14 -3 -6 -6z"/>
<path d="M3858 1393 c7 -3 16 -2 19 1 4 3 -2 6 -13 5 -11 0 -14 -3 -6 -6z"/>
<path d="M2920 5303 c74 -79 136 -143 138 -143 6 0 -171 190 -224 240 -26 25
13 -19 86 -97z"/>
<path d="M1820 5248 c-38 -42 -47 -66 -12 -35 12 11 22 13 28 7 6 -6 10 -2 11
12 1 12 12 30 25 40 20 15 20 18 5 18 -10 0 -35 -19 -57 -42z"/>
<path d="M4035 5196 c39 -8 79 -14 90 -15 47 0 -27 19 -93 24 l-67 5 70 -14z"/>
<path d="M4319 5141 c24 -12 51 -21 60 -21 9 0 22 -5 29 -12 9 -9 12 -8 12 4
0 17 -37 33 -105 43 l-40 6 44 -20z"/>
<path d="M1624 5020 c-31 -39 -53 -74 -49 -78 4 -4 10 -2 12 4 2 7 26 40 53
74 28 34 50 63 50 66 0 12 -14 -2 -66 -66z"/>
<path d="M2510 4845 c7 -9 15 -13 17 -11 7 7 -7 26 -19 26 -6 0 -6 -6 2 -15z"/>
<path d="M2275 4810 c-3 -6 1 -7 9 -4 18 7 21 14 7 14 -6 0 -13 -4 -16 -10z"/>
<path d="M2750 4810 c0 -5 5 -10 11 -10 5 0 7 5 4 10 -3 6 -8 10 -11 10 -2 0
-4 -4 -4 -10z"/>
<path d="M4237 4517 c17 -6 35 -15 39 -19 4 -5 17 -8 28 -8 19 1 19 2 -4 14
-14 8 -41 16 -60 20 l-35 6 32 -13z"/>
<path d="M4362 4371 c-6 -17 -7 -33 -3 -36 5 -2 11 10 14 28 6 42 2 45 -11 8z"/>
<path d="M5001 4384 c0 -11 3 -14 6 -6 3 7 2 16 -1 19 -3 4 -6 -2 -5 -13z"/>
<path d="M2450 4370 c0 -5 5 -10 11 -10 5 0 7 5 4 10 -3 6 -8 10 -11 10 -2 0
-4 -4 -4 -10z"/>
<path d="M4524 4298 l-19 -23 23 19 c12 11 22 21 22 23 0 8 -8 2 -26 -19z"/>
<path d="M4971 4274 c0 -11 3 -14 6 -6 3 7 2 16 -1 19 -3 4 -6 -2 -5 -13z"/>
<path d="M3960 4256 c0 -2 8 -10 18 -17 15 -13 16 -12 3 4 -13 16 -21 21 -21
13z"/>
<path d="M4961 4234 c0 -11 3 -14 6 -6 3 7 2 16 -1 19 -3 4 -6 -2 -5 -13z"/>
<path d="M4015 4200 c3 -5 8 -10 11 -10 2 0 4 5 4 10 0 6 -5 10 -11 10 -5 0
-7 -4 -4 -10z"/>
<path d="M2118 4173 c7 -3 16 -2 19 1 4 3 -2 6 -13 5 -11 0 -14 -3 -6 -6z"/>
<path d="M1100 4120 c-20 -6 -21 -8 -5 -8 11 0 34 4 50 8 27 7 27 8 5 8 -14 0
-36 -4 -50 -8z"/>
<path d="M4921 4104 c0 -11 3 -14 6 -6 3 7 2 16 -1 19 -3 4 -6 -2 -5 -13z"/>
<path d="M1048 4103 c7 -3 16 -2 19 1 4 3 -2 6 -13 5 -11 0 -14 -3 -6 -6z"/>
<path d="M998 4093 c7 -3 16 -2 19 1 4 3 -2 6 -13 5 -11 0 -14 -3 -6 -6z"/>
<path d="M2350 4096 c0 -2 7 -7 16 -10 8 -3 12 -2 9 4 -6 10 -25 14 -25 6z"/>
<path d="M958 4083 c7 -3 16 -2 19 1 4 3 -2 6 -13 5 -11 0 -14 -3 -6 -6z"/>
<path d="M918 4073 c7 -3 16 -2 19 1 4 3 -2 6 -13 5 -11 0 -14 -3 -6 -6z"/>
<path d="M2425 4050 c3 -5 8 -10 11 -10 2 0 4 5 4 10 0 6 -5 10 -11 10 -5 0
-7 -4 -4 -10z"/>
<path d="M770 4035 c-19 -7 -28 -13 -20 -13 8 0 31 6 50 13 19 7 28 13 20 13
-8 0 -31 -6 -50 -13z"/>
<path d="M4411 4032 c-17 -31 -13 -40 5 -14 9 13 14 26 11 29 -3 2 -10 -4 -16
-15z"/>
<path d="M2484 4005 c11 -8 22 -12 25 -9 6 6 -19 24 -34 24 -5 -1 -1 -7 9 -15z"/>
<path d="M4883 3995 c-3 -9 -3 -18 -1 -21 3 -3 8 4 11 16 6 23 -1 27 -10 5z"/>
<path d="M2552 3951 c27 -34 33 -33 17 3 -7 14 -19 26 -26 26 -10 0 -8 -8 9
-29z"/>
<path d="M3619 3973 c0 -5 -2 -17 -4 -28 -2 -11 -6 -40 -10 -65 -5 -38 -4 -42
7 -25 12 20 23 125 13 125 -3 0 -5 -3 -6 -7z"/>
<path d="M1395 3710 c-3 -5 1 -10 9 -10 9 0 16 5 16 10 0 6 -4 10 -9 10 -6 0
-13 -4 -16 -10z"/>
<path d="M1685 3647 c-44 -10 -111 -26 -150 -37 l-70 -18 55 3 c46 2 236 49
249 61 12 11 -11 8 -84 -9z"/>
<path d="M1368 3563 c7 -3 16 -2 19 1 4 3 -2 6 -13 5 -11 0 -14 -3 -6 -6z"/>
<path d="M1135 3500 c-7 -12 2 -12 30 0 19 8 19 9 -2 9 -12 1 -25 -3 -28 -9z"/>
<path d="M5404 3242 c9 -17 16 -35 16 -40 0 -16 41 -104 47 -99 6 7 -56 155
-69 163 -5 3 -3 -8 6 -24z"/>
<path d="M1740 3230 c-21 -7 -21 -8 -5 -9 11 0 27 4 35 9 18 11 5 11 -30 0z"/>
<path d="M1530 3209 c0 -5 5 -7 10 -4 6 3 10 8 10 11 0 2 -4 4 -10 4 -5 0 -10
-5 -10 -11z"/>
<path d="M453 3165 c-7 -20 16 -105 29 -105 6 0 8 9 5 20 -3 11 -1 23 5 26 5
3 1 12 -10 20 -13 9 -18 21 -15 34 6 23 -5 27 -14 5z"/>
<path d="M4399 3113 c-13 -16 -12 -17 4 -4 16 13 21 21 13 21 -2 0 -10 -8 -17
-17z"/>
<path d="M1920 3085 c-11 -13 -8 -13 21 -3 44 15 48 18 17 18 -14 0 -31 -7
-38 -15z"/>
<path d="M1870 3070 c-8 -5 -12 -11 -9 -14 2 -3 11 -1 19 4 8 5 12 11 9 14 -2
3 -11 1 -19 -4z"/>
<path d="M1795 3030 c-3 -6 1 -7 9 -4 18 7 21 14 7 14 -6 0 -13 -4 -16 -10z"/>
<path d="M1740 3000 c-9 -6 -10 -10 -3 -10 6 0 15 5 18 10 8 12 4 12 -15 0z"/>
<path d="M4188 2963 c7 -3 16 -2 19 1 4 3 -2 6 -13 5 -11 0 -14 -3 -6 -6z"/>
<path d="M4119 2934 c-12 -14 -11 -16 5 -13 11 2 21 10 24 17 5 17 -13 15 -29
-4z"/>
<path d="M5520 2935 c-1 -5 -3 -19 -5 -30 -2 -11 3 -27 11 -36 8 -9 12 -23 8
-34 -5 -13 -4 -16 4 -11 16 10 14 54 -3 91 -7 17 -14 26 -15 20z"/>
<path d="M4555 2920 c-3 -5 -1 -10 4 -10 6 0 11 5 11 10 0 6 -2 10 -4 10 -3 0
-8 -4 -11 -10z"/>
<path d="M4050 2910 c-27 -9 -26 -10 8 -14 13 -2 22 3 22 11 0 7 -1 13 -2 12
-2 -1 -14 -5 -28 -9z"/>
<path d="M541 2887 c-1 -22 59 -170 66 -163 3 3 -2 21 -11 40 -9 19 -16 41
-16 49 0 9 -4 19 -10 22 -5 3 -14 20 -19 38 -5 18 -10 24 -10 14z"/>
<path d="M1535 2824 c-9 -15 -12 -23 -6 -20 11 7 35 46 28 46 -3 0 -12 -12
-22 -26z"/>
<path d="M4288 2773 c6 -2 18 -2 25 0 6 3 1 5 -13 5 -14 0 -19 -2 -12 -5z"/>
<path d="M4931 2694 c0 -11 3 -14 6 -6 3 7 2 16 -1 19 -3 4 -6 -2 -5 -13z"/>
<path d="M4845 2503 c-11 -3 -24 -8 -28 -13 -12 -11 51 -2 71 10 15 8 15 9 -3
9 -11 -1 -29 -3 -40 -6z"/>
<path d="M4598 2423 c7 -3 16 -2 19 1 4 3 -2 6 -13 5 -11 0 -14 -3 -6 -6z"/>
<path d="M4548 2323 c7 -3 16 -2 19 1 4 3 -2 6 -13 5 -11 0 -14 -3 -6 -6z"/>
<path d="M4893 2323 c9 -2 23 -2 30 0 6 3 -1 5 -18 5 -16 0 -22 -2 -12 -5z"/>
<path d="M4708 2303 c7 -3 16 -2 19 1 4 3 -2 6 -13 5 -11 0 -14 -3 -6 -6z"/>
<path d="M5613 2220 c-7 -25 -24 -57 -38 -72 -35 -37 -32 -48 4 -14 35 33 54
75 49 107 -2 18 -6 12 -15 -21z"/>
<path d="M2390 2142 c-10 -18 -13 -40 -9 -67 5 -35 6 -36 8 -9 0 17 6 45 12
63 14 41 8 48 -11 13z"/>
<path d="M3430 2055 c1 -17 29 -49 37 -41 4 3 -3 16 -15 29 -12 12 -22 17 -22
12z"/>
<path d="M3490 2002 c0 -10 22 -32 32 -32 15 0 8 15 -12 28 -11 7 -20 9 -20 4z"/>
<path d="M2373 1940 c0 -36 2 -50 4 -32 2 17 2 47 0 65 -2 17 -4 3 -4 -33z"/>
<path d="M1096 1965 c-9 -26 -7 -32 5 -12 6 10 9 21 6 23 -2 3 -7 -2 -11 -11z"/>
<path d="M1580 1969 c0 -5 5 -7 10 -4 6 3 10 8 10 11 0 2 -4 4 -10 4 -5 0 -10
-5 -10 -11z"/>
<path d="M5130 1940 c-18 -12 -2 -12 25 0 13 6 15 9 5 9 -8 0 -22 -4 -30 -9z"/>
<path d="M1076 1904 c-4 -14 -5 -28 -3 -31 3 -2 8 8 11 23 4 14 5 28 3 31 -3
2 -8 -8 -11 -23z"/>
<path d="M5078 1923 c7 -3 16 -2 19 1 4 3 -2 6 -13 5 -11 0 -14 -3 -6 -6z"/>
<path d="M5038 1913 c7 -3 16 -2 19 1 4 3 -2 6 -13 5 -11 0 -14 -3 -6 -6z"/>
<path d="M4998 1903 c7 -3 16 -2 19 1 4 3 -2 6 -13 5 -11 0 -14 -3 -6 -6z"/>
<path d="M4920 1890 c-20 -6 -21 -8 -5 -8 11 0 31 4 45 8 20 6 21 8 5 8 -11 0
-31 -4 -45 -8z"/>
<path d="M4830 1870 c-20 -6 -21 -8 -5 -8 11 0 31 4 45 8 20 6 21 8 5 8 -11 0
-31 -4 -45 -8z"/>
<path d="M4758 1853 c7 -3 16 -2 19 1 4 3 -2 6 -13 5 -11 0 -14 -3 -6 -6z"/>
<path d="M3520 1841 c0 -6 4 -13 10 -16 6 -3 7 1 4 9 -7 18 -14 21 -14 7z"/>
<path d="M4718 1843 c7 -3 16 -2 19 1 4 3 -2 6 -13 5 -11 0 -14 -3 -6 -6z"/>
<path d="M3841 1826 c2 -2 22 -6 44 -9 28 -5 34 -4 20 3 -19 8 -73 14 -64 6z"/>
<path d="M1041 1784 c0 -11 3 -14 6 -6 3 7 2 16 -1 19 -3 4 -6 -2 -5 -13z"/>
<path d="M1026 1734 c-4 -14 -5 -28 -3 -31 3 -2 8 8 11 23 4 14 5 28 3 31 -3
2 -8 -8 -11 -23z"/>
<path d="M1470 1698 c-15 -21 -17 -28 -6 -19 16 13 41 51 33 51 -2 0 -14 -15
-27 -32z"/>
<path d="M1636 1655 c-3 -9 -6 -22 -5 -28 0 -7 5 -1 10 12 5 13 8 26 5 28 -2
2 -6 -3 -10 -12z"/>
<path d="M1001 1634 c0 -11 3 -14 6 -6 3 7 2 16 -1 19 -3 4 -6 -2 -5 -13z"/>
<path d="M3540 1630 c0 -5 5 -10 11 -10 5 0 7 5 4 10 -3 6 -8 10 -11 10 -2 0
-4 -4 -4 -10z"/>
<path d="M981 1554 c0 -11 3 -14 6 -6 3 7 2 16 -1 19 -3 4 -6 -2 -5 -13z"/>
<path d="M2558 1523 c6 -2 18 -2 25 0 6 3 1 5 -13 5 -14 0 -19 -2 -12 -5z"/>
<path d="M3300 1327 c0 -2 15 -16 33 -33 l32 -29 -29 33 c-28 30 -36 37 -36
29z"/>
<path d="M3480 1150 c0 -5 10 -15 23 -21 22 -12 22 -12 3 10 -21 23 -26 26
-26 11z"/>
<path d="M3281 1134 c0 -11 3 -14 6 -6 3 7 2 16 -1 19 -3 4 -6 -2 -5 -13z"/>
<path d="M4385 1004 c-52 -60 -68 -84 -58 -84 7 0 78 86 97 118 14 24 -1 11
-39 -34z"/>
<path d="M1586 876 c3 -8 28 -19 55 -25 67 -15 69 -14 31 9 -18 11 -37 18 -42
15 -5 -3 -19 -1 -30 5 -16 8 -18 8 -14 -4z"/>
<path d="M2945 830 c10 -11 20 -20 23 -20 3 0 -3 9 -13 20 -10 11 -20 20 -23
20 -3 0 3 -9 13 -20z"/>
<path d="M1864 812 c3 -5 34 -13 68 -17 35 -3 71 -9 82 -12 11 -3 16 -1 12 5
-3 5 -34 13 -68 17 -35 3 -71 9 -82 12 -11 3 -16 1 -12 -5z"/>
<path d="M3027 745 c29 -33 82 -89 120 -125 49 -47 42 -38 -27 35 -133 141
-151 159 -93 90z"/>
<path d="M4183 778 c-18 -11 -33 -26 -33 -33 0 -8 -8 -19 -17 -24 -16 -9 -16
-10 -2 -11 14 0 89 71 89 85 0 6 0 7 -37 -17z"/>
</g>
</svg>
