<?xml version="1.0" standalone="no"?>
<!DOCTYPE svg PUBLIC "-//W3C//DTD SVG 20010904//EN"
 "http://www.w3.org/TR/2001/REC-SVG-20010904/DTD/svg10.dtd">
<svg version="1.0" xmlns="http://www.w3.org/2000/svg"
 width="199.000000pt" height="199.000000pt" viewBox="0 0 199.000000 199.000000"
 preserveAspectRatio="xMidYMid meet">
<metadata>
Created by potrace 1.14, written by Peter Selinger 2001-2017
</metadata>
<g transform="translate(0.000000,199.000000) scale(0.100000,-0.100000)"
fill="#000000" stroke="none">
<path d="M0 1278 c0 -635 2 -709 15 -698 9 7 18 10 21 7 3 -3 -4 -10 -15 -17
-21 -11 -21 -16 -21 -290 l1 -280 995 0 994 0 0 255 c0 198 -3 254 -12 251 -7
-1 -10 -1 -5 1 4 3 4 10 1 15 -4 7 -2 8 4 4 9 -5 12 22 12 103 l0 110 -60 22
c-33 12 -59 24 -56 26 2 2 28 -5 57 -17 30 -11 55 -20 57 -20 1 0 2 144 2 320
0 176 -1 320 -2 320 -2 0 -27 -9 -57 -20 -29 -12 -55 -19 -57 -17 -3 2 23 14
56 26 l60 22 -1 110 c0 75 -4 107 -11 103 -6 -4 -8 -2 -4 4 3 5 3 12 -1 15 -5
2 -2 2 5 1 9 -3 12 38 12 176 l0 179 -389 1 c-362 0 -391 -1 -401 -17 -10 -16
-11 -16 -6 -1 5 16 -11 17 -184 17 -173 0 -189 -1 -184 -17 5 -15 4 -15 -6 1
-10 16 -40 17 -416 17 l-404 -1 0 -711z m740 584 c0 -15 -2 -15 -10 -2 -13 20
-13 33 0 25 6 -3 10 -14 10 -23z m551 1 c-8 -15 -10 -15 -11 -2 0 17 10 32 18
25 2 -3 -1 -13 -7 -23z m-224 -25 c-3 -7 -5 -2 -5 12 0 14 2 19 5 13 2 -7 2
-19 0 -25z m283 18 c0 -2 -8 -10 -17 -17 -16 -13 -17 -12 -4 4 13 16 21 21 21
13z m-187 -21 c-3 -9 -8 -14 -10 -11 -3 3 -2 9 2 15 9 16 15 13 8 -4z m-233
-175 c5 0 24 27 42 60 18 33 36 60 39 60 4 0 19 -25 35 -56 15 -30 32 -58 38
-61 6 -4 49 34 96 83 47 49 76 79 66 67 -26 -31 -15 -38 16 -11 35 32 53 34
31 4 -10 -13 -20 -22 -22 -20 -15 14 -143 -112 -173 -171 l-21 -40 -13 54
c-14 51 -42 111 -54 111 -12 0 -40 -60 -54 -111 l-13 -54 -18 35 c-10 19 -29
50 -43 68 -28 37 -121 114 -131 108 -3 -2 -15 8 -25 22 -20 26 -14 24 37 -10
31 -22 35 -14 10 17 -10 11 19 -19 65 -67 46 -49 88 -88 92 -88z m-34 93 c-4
-4 -36 73 -35 85 0 4 9 -13 20 -37 11 -24 18 -46 15 -48z m-708 42 c-3 -3 -9
2 -12 12 -6 14 -5 15 5 6 7 -7 10 -15 7 -18z m1655 10 c-3 -9 -8 -14 -10 -11
-3 3 -2 9 2 15 9 16 15 13 8 -4z m-896 -32 c-3 -10 -5 -4 -5 12 0 17 2 24 5
18 2 -7 2 -21 0 -30z m130 0 c-3 -10 -5 -4 -5 12 0 17 2 24 5 18 2 -7 2 -21 0
-30z m59 0 c-8 -15 -15 -25 -16 -21 0 12 23 58 27 54 3 -2 -2 -17 -11 -33z
m-836 -64 l55 -51 -62 48 c-35 26 -63 49 -63 50 0 12 22 -2 70 -47z m1474 33
c-5 -5 -34 -28 -64 -51 l-55 -43 60 55 c33 31 62 54 64 51 3 -2 0 -8 -5 -12z
m-1241 -92 c12 -14 15 -19 7 -12 -30 26 -31 14 -8 -93 12 -54 40 -118 67 -149
15 -18 15 -19 -3 -13 -47 18 -105 28 -139 25 l-36 -3 39 -57 c27 -38 35 -58
27 -62 -7 -3 -3 -4 9 -1 12 3 26 -1 33 -9 10 -11 5 -13 -31 -9 -44 5 -145 -17
-208 -44 l-35 -16 25 -8 c21 -7 20 -8 -8 -4 -20 3 -46 -2 -64 -11 -16 -8 -32
-14 -34 -11 -2 2 24 18 58 35 39 19 55 32 43 32 -11 1 7 7 40 15 108 23 145
36 145 48 0 7 -16 37 -36 67 l-35 55 76 3 c82 3 83 4 64 63 -12 36 -15 50 -18
61 -1 4 -8 26 -16 49 -19 52 -18 61 1 29 15 -25 15 -25 8 10 -7 41 -7 37 -4
75 3 29 3 29 7 -5 3 -19 14 -46 26 -60z m579 78 c-5 -7 -12 -22 -15 -33 -5
-20 -5 -20 -6 1 0 11 4 25 11 32 16 16 23 15 10 0z m406 -73 c-11 -40 -10 -47
4 -39 8 5 9 2 3 -12 -4 -10 -9 -26 -10 -34 -1 -8 -5 -22 -8 -30 -40 -109 -40
-110 48 -110 41 0 75 -2 75 -5 0 -3 -16 -29 -35 -58 -19 -28 -35 -57 -35 -64
0 -12 58 -32 107 -37 13 -2 26 -6 30 -9 3 -4 20 -7 37 -8 23 0 26 -2 13 -8
-15 -5 -8 -11 33 -30 28 -13 49 -26 46 -29 -3 -2 -12 1 -20 7 -9 8 -28 10 -48
7 -23 -4 -27 -3 -13 3 18 7 16 10 -20 25 -70 30 -157 48 -204 43 l-45 -5 24
18 c18 14 27 16 33 7 6 -8 7 -5 3 7 -4 12 1 27 12 40 10 12 26 33 35 49 l17
27 -43 0 c-24 0 -66 -7 -93 -15 -61 -18 -60 -19 -42 3 25 28 55 93 66 147 23
107 22 119 -8 93 -8 -7 -5 -1 8 13 13 14 22 40 23 60 l1 34 7 -30 c4 -16 4
-43 -1 -60z m-1050 39 c-4 -3 -12 5 -18 18 -12 22 -12 22 6 6 10 -10 15 -20
12 -24z m465 21 c-3 -9 -8 -14 -10 -11 -3 3 -2 9 2 15 9 16 15 13 8 -4z m635
-5 c-7 -10 -14 -17 -17 -15 -4 4 18 35 25 35 2 0 -1 -9 -8 -20z m-763 -30 c10
-11 16 -20 13 -20 -3 0 -13 9 -23 20 -10 11 -16 20 -13 20 3 0 13 -9 23 -20z
m-710 0 c3 -6 -1 -7 -9 -4 -18 7 -21 14 -7 14 6 0 13 -4 16 -10z m1135 6 c0
-2 -8 -10 -17 -17 -16 -13 -17 -12 -4 4 13 16 21 21 21 13z m720 0 c0 -2 -7
-7 -16 -10 -8 -3 -12 -2 -9 4 6 10 25 14 25 6z m-1793 -22 c-3 -3 -12 -4 -19
-1 -8 3 -5 6 6 6 11 1 17 -2 13 -5z m-105 -31 c-6 -2 -9 -10 -6 -15 4 -7 2 -8
-5 -4 -13 9 -5 26 12 25 9 0 8 -2 -1 -6z m175 -42 c12 -9 23 -20 23 -24 0 -9
-88 52 -98 68 -6 10 27 -10 75 -44z m1618 23 c-33 -27 -95 -66 -95 -59 0 5
112 85 119 85 3 -1 -7 -12 -24 -26z m-1395 -64 c30 -43 18 -37 -16 7 -15 20
-23 33 -16 29 6 -3 21 -20 32 -36z m1134 5 c-14 -19 -29 -35 -31 -35 -5 0 7
18 36 53 26 31 23 18 -5 -18z m356 -20 c0 -7 -71 -41 -100 -49 -14 -3 2 7 35
23 70 34 65 32 65 26z m-1775 -35 c33 -15 56 -28 50 -29 -5 0 -37 13 -70 29
-33 15 -55 28 -50 29 6 0 37 -13 70 -29z m1786 7 c-10 -9 -11 -8 -5 6 3 10 9
15 12 12 3 -3 0 -11 -7 -18z m-1504 -34 c-5 -4 -97 34 -97 41 0 3 23 -5 50
-16 28 -11 49 -23 47 -25z m1209 32 c-11 -8 -25 -15 -30 -15 -6 1 0 7 14 15
32 19 40 18 16 0z m-56 -25 c-8 -5 -19 -10 -25 -10 -5 0 -3 5 5 10 8 5 20 10
25 10 6 0 3 -5 -5 -10z m-1097 -14 c4 -10 1 -13 -8 -9 -8 3 -12 9 -9 14 7 12
11 11 17 -5z m1020 -12 c-26 -20 -35 -17 -16 5 9 11 21 18 25 15 5 -3 1 -12
-9 -20z m-562 -53 c0 -10 4 -7 10 9 8 19 12 21 19 11 5 -8 4 -24 -3 -38 -8
-19 -13 -21 -25 -11 -12 10 -14 9 -11 -7 6 -29 39 -32 39 -5 0 19 2 20 15 10
8 -7 16 -9 16 -4 1 5 3 19 4 32 3 32 15 40 21 14 l6 -21 17 20 c16 20 17 19
13 -23 -3 -27 -13 -51 -27 -66 l-23 -23 -4 22 c-4 30 -28 37 -35 10 -7 -26 -8
-26 -32 -2 -22 22 -34 101 -14 94 7 -3 13 -13 14 -22z m-590 -38 c8 -9 -5 -2
-28 17 -24 18 -43 35 -43 37 0 7 56 -35 71 -54z m1349 54 c0 -2 -19 -18 -42
-36 l-43 -32 39 35 c37 34 46 40 46 33z m-1612 -44 c24 -8 41 -17 39 -19 -5
-6 -117 36 -117 43 0 3 8 2 18 -2 9 -4 36 -14 60 -22z m189 -49 c-3 -3 -12 -4
-19 -1 -8 3 -5 6 6 6 11 1 17 -2 13 -5z m150 -20 c-6 -6 -47 9 -47 17 0 5 11
3 25 -3 14 -6 24 -13 22 -14z m726 2 c-10 -13 -20 -22 -22 -20 -4 4 29 44 36
44 2 0 -4 -11 -14 -24z m447 14 c0 -5 -4 -10 -9 -10 -5 0 -18 -3 -28 -6 -16
-6 -16 -5 2 9 23 19 35 21 35 7z m133 3 c-7 -2 -19 -2 -25 0 -7 3 -2 5 12 5
14 0 19 -2 13 -5z m-1380 -10 c-13 -2 -33 -2 -45 0 -13 2 -3 4 22 4 25 0 35
-2 23 -4z m488 -10 c13 -16 12 -17 -3 -4 -10 7 -18 15 -18 17 0 8 8 3 21 -13z
m832 10 c-7 -2 -21 -2 -30 0 -10 3 -4 5 12 5 17 0 24 -2 18 -5z m-880 -75 c5
-18 14 -40 20 -48 6 -8 -1 -4 -15 9 -32 28 -65 23 -48 -8 14 -27 13 -28 -13
-35 -14 -3 -39 2 -62 14 -38 19 -38 20 -11 20 l27 0 -22 33 c-20 28 -21 30 -3
15 11 -10 25 -18 31 -18 6 0 13 -9 16 -20 3 -11 1 -20 -4 -20 -5 0 -9 -4 -9
-10 0 -5 7 -10 15 -10 19 0 33 32 16 38 -8 3 -9 8 -1 16 7 9 4 18 -10 31 -24
21 -26 37 -5 29 11 -5 13 -2 9 10 -5 14 -3 15 27 2 25 -10 36 -23 42 -48z
m461 40 c-6 -20 -5 -21 10 -9 22 19 20 4 -5 -27 -25 -32 -11 -40 32 -18 l31
15 -16 -24 c-16 -24 -16 -25 6 -25 21 0 20 -2 -10 -20 -18 -11 -38 -20 -45
-19 -6 0 -1 5 13 11 14 6 20 12 13 15 -7 2 -21 0 -32 -6 -33 -18 -43 -13 -26
13 11 17 13 26 5 31 -8 5 -5 11 7 21 16 12 16 13 2 14 -9 0 -23 -10 -32 -22
-8 -13 -19 -19 -23 -15 -5 4 5 19 21 32 17 13 25 24 20 25 -6 0 -16 -5 -23
-12 -9 -9 -12 -9 -12 0 0 9 42 34 68 41 2 1 0 -9 -4 -21z m-1083 -56 c-7 -2
-18 1 -23 6 -8 8 -4 9 13 5 13 -4 18 -8 10 -11z m52 11 c-7 -2 -19 -2 -25 0
-7 3 -2 5 12 5 14 0 19 -2 13 -5z m1560 0 c-7 -2 -19 -2 -25 0 -7 3 -2 5 12 5
14 0 19 -2 13 -5z m52 -3 c-3 -5 -14 -10 -23 -9 -14 0 -13 2 3 9 27 11 27 11
20 0z m-1108 -146 c-3 -3 -12 -4 -19 -1 -8 3 -5 6 6 6 11 1 17 -2 13 -5z m546
-1 c-7 -2 -19 -2 -25 0 -7 3 -2 5 12 5 14 0 19 -2 13 -5z m-546 -29 c-3 -3
-12 -4 -19 -1 -8 3 -5 6 6 6 11 1 17 -2 13 -5z m31 -74 c9 0 8 -7 -4 -25 -15
-23 -15 -25 0 -31 11 -4 27 3 44 17 18 16 21 17 10 4 -9 -11 -18 -24 -20 -30
-2 -5 -13 -9 -25 -7 -12 1 -25 -3 -29 -9 -5 -9 0 -10 15 -6 18 4 20 3 10 -9
-14 -17 2 -19 20 -1 11 10 13 9 9 -1 -2 -8 -18 -20 -36 -28 -32 -13 -33 -13
-26 9 6 20 5 21 -11 7 -17 -13 -18 -13 -10 0 4 8 14 22 22 32 11 12 11 18 3
23 -9 6 -9 9 -1 15 15 9 3 40 -15 40 -8 0 -14 -4 -14 -10 0 -5 4 -10 9 -10 5
0 7 -9 4 -20 -3 -11 -10 -20 -16 -20 -6 0 -20 -8 -31 -17 -18 -16 -17 -14 3
15 21 29 21 32 4 32 -15 0 -14 4 7 20 14 12 34 18 45 15 11 -3 26 -5 33 -5z
m542 -10 c21 -16 22 -20 7 -20 -17 0 -17 -1 0 -27 13 -21 14 -25 3 -17 -20 15
-70 26 -70 16 0 -5 9 -17 20 -27 24 -21 26 -37 5 -29 -11 5 -13 2 -9 -10 6
-15 3 -15 -22 -4 -38 15 -40 18 -47 48 -6 23 -3 26 21 25 27 0 29 5 17 38 -4
10 -3 17 4 17 6 0 11 -9 11 -20 0 -11 7 -20 16 -20 8 0 13 4 9 9 -3 5 3 11 12
14 15 3 14 6 -7 15 -14 6 -18 11 -10 11 8 0 26 -8 40 -19z m-1112 -15 c14 -11
34 -14 59 -11 28 4 32 3 13 -3 -25 -8 -24 -8 14 -24 66 -29 159 -49 202 -44
l41 4 -36 -36 c-20 -20 -46 -53 -58 -74 l-22 -37 48 0 c27 0 67 7 90 15 22 8
41 13 41 11 0 -2 -12 -25 -26 -50 -27 -48 -38 -84 -53 -168 -8 -50 -5 -57 19
-36 8 7 5 1 -8 -13 -13 -14 -22 -40 -23 -60 l-1 -34 -7 30 c-4 17 -4 43 1 60
12 44 9 53 -7 25 -18 -32 -19 -23 0 29 8 23 15 43 15 46 1 6 4 18 19 64 19 60
18 61 -64 61 -41 0 -75 2 -75 4 0 2 16 28 35 57 19 30 35 59 35 66 0 12 -58
32 -107 37 -13 2 -26 6 -30 9 -3 4 -20 7 -37 8 -24 0 -27 2 -12 8 16 6 14 9
-15 21 -43 18 -97 50 -84 50 6 0 20 -7 33 -15z m1607 -8 c-11 -7 -35 -20 -54
-27 -29 -12 -31 -15 -15 -21 15 -6 12 -8 -12 -8 -17 -1 -34 -4 -37 -8 -4 -3
-17 -7 -30 -9 -49 -5 -107 -25 -107 -37 0 -7 16 -36 35 -66 19 -29 35 -55 35
-57 0 -2 -34 -4 -76 -4 l-76 0 7 -36 c3 -20 11 -48 16 -63 6 -14 10 -27 10
-28 0 -2 6 -21 14 -44 19 -52 18 -61 0 -29 -16 28 -19 19 -7 -25 5 -17 5 -43
1 -60 l-7 -30 -1 34 c-1 20 -10 45 -23 60 l-23 26 23 -19 22 -19 -6 34 c-20
118 -45 188 -83 233 -15 18 -15 19 3 13 47 -18 105 -28 138 -25 l36 3 -33 49
c-18 27 -31 56 -28 65 3 11 2 12 -4 4 -6 -9 -15 -7 -33 7 l-24 18 45 -5 c47
-5 134 13 204 43 36 15 38 18 20 25 -15 7 -13 8 10 4 17 -3 37 -1 45 5 8 5 19
10 25 10 5 0 1 -6 -10 -13z m-1615 -31 c0 -2 -9 -6 -20 -9 -11 -3 -18 -1 -14
4 5 9 34 13 34 5z m1654 -5 c4 -5 -3 -7 -14 -4 -23 6 -26 13 -6 13 8 0 17 -4
20 -9z m-1611 -8 c-7 -2 -19 -2 -25 0 -7 3 -2 5 12 5 14 0 19 -2 13 -5z m1560
0 c-7 -2 -19 -2 -25 0 -7 3 -2 5 12 5 14 0 19 -2 13 -5z m-933 -56 c0 -2 -12
-14 -27 -28 l-28 -24 24 28 c23 25 31 32 31 24z m305 -17 c10 -11 16 -20 13
-20 -3 0 -13 9 -23 20 -10 11 -16 20 -13 20 3 0 13 -9 23 -20z m-726 6 c-15
-13 -49 -25 -49 -17 0 5 8 12 18 14 24 6 36 8 31 3z m689 -21 c-3 -3 -9 2 -12
12 -6 14 -5 15 5 6 7 -7 10 -15 7 -18z m481 9 c2 -2 2 -7 -2 -10 -3 -3 -16 2
-29 11 l-23 17 25 -7 c14 -4 27 -9 29 -11z m-1251 -1 c-10 -2 -28 -2 -40 0
-13 2 -5 4 17 4 22 1 32 -1 23 -4z m625 -13 c7 -26 23 -26 37 0 10 19 12 19
29 3 11 -11 20 -36 23 -61 l4 -44 -20 24 -19 23 6 -30 c3 -16 4 -24 1 -17 -3
6 -10 10 -15 6 -5 -3 -9 -2 -10 3 -4 43 -7 54 -13 60 -9 9 -27 -18 -22 -33 2
-6 0 -17 -4 -25 -7 -10 -11 -8 -19 11 -6 16 -10 19 -10 9 -1 -9 -7 -19 -14
-22 -18 -7 -9 71 12 93 21 24 28 24 34 0z m690 13 c-7 -2 -19 -2 -25 0 -7 3
-2 5 12 5 14 0 19 -2 13 -5z m-1390 -10 c-7 -2 -19 -2 -25 0 -7 3 -2 5 12 5
14 0 19 -2 13 -5z m-144 -27 c-8 -8 -113 -45 -117 -42 -2 2 21 13 50 25 51 19
76 26 67 17z m221 -11 c-7 -9 -27 -25 -44 -37 -23 -15 -21 -11 9 16 43 38 55
45 35 21z m145 5 c-3 -5 -12 -10 -18 -10 -7 0 -6 4 3 10 19 12 23 12 15 0z
m1205 -57 c0 -7 -56 35 -71 54 -8 9 5 2 29 -17 23 -18 42 -35 42 -37z m-1206
-38 c-10 -8 -23 -15 -28 -15 -6 0 -1 7 10 15 10 8 23 15 28 15 6 0 1 -7 -10
-15z m1009 1 c10 -8 14 -17 9 -20 -4 -3 -16 4 -25 15 -19 22 -10 25 16 5z
m-1358 -46 c-33 -16 -64 -29 -70 -29 -5 1 17 14 50 29 33 16 65 29 70 29 6 -1
-17 -14 -50 -29z m1435 20 c8 -5 11 -10 5 -10 -5 0 -17 5 -25 10 -8 5 -10 10
-5 10 6 0 17 -5 25 -10z m303 -31 c20 -11 37 -22 37 -24 0 -5 -111 43 -120 52
-8 9 42 -8 83 -28z m-1513 11 c-8 -5 -19 -10 -25 -10 -5 0 -3 5 5 10 8 5 20
10 25 10 6 0 3 -5 -5 -10z m1189 -50 l33 -45 -32 35 c-17 19 -36 44 -42 55
-14 27 1 10 41 -45z m71 50 c8 -5 11 -10 5 -10 -5 0 -17 5 -25 10 -8 5 -10 10
-5 10 6 0 17 -5 25 -10z m308 -25 c-3 -3 -9 2 -12 12 -6 14 -5 15 5 6 7 -7 10
-15 7 -18z m-1508 -25 c-11 -16 -26 -33 -32 -36 -7 -4 1 9 16 29 34 44 46 50
16 7z m-236 -48 c-50 -36 -64 -44 -64 -38 0 7 83 66 93 66 6 0 -8 -13 -29 -28z
m1614 -3 c43 -31 56 -47 25 -30 -33 18 -87 61 -77 61 6 0 29 -14 52 -31z
m-841 -110 c10 -16 20 -29 23 -29 12 0 40 60 54 111 l13 54 22 -43 c29 -57
157 -182 172 -168 2 2 12 -7 22 -20 22 -30 4 -28 -31 4 -31 27 -42 20 -16 -11
10 -12 -19 18 -66 67 -47 49 -90 87 -96 83 -6 -3 -23 -31 -38 -61 -16 -31 -32
-56 -37 -56 -4 0 -17 19 -27 43 -43 94 -41 94 -145 -13 -50 -52 -81 -83 -68
-68 31 35 23 46 -11 16 -35 -32 -53 -34 -31 -4 10 13 21 22 24 20 10 -6 103
71 131 108 14 18 33 49 43 68 l18 35 13 -54 c8 -29 22 -66 31 -82z m-942 91
c-3 -5 -1 -10 6 -10 7 0 10 -3 6 -6 -9 -9 -28 6 -22 17 4 5 8 9 11 9 3 0 2 -4
-1 -10z m112 -46 c-3 -3 -12 -4 -19 -1 -8 3 -5 6 6 6 11 1 17 -2 13 -5z m143
-44 c-30 -27 -59 -50 -64 -50 -12 0 -5 7 59 59 69 55 71 51 5 -9z m925 30 c10
-11 16 -20 13 -20 -3 0 -13 9 -23 20 -10 11 -16 20 -13 20 3 0 13 -9 23 -20z
m561 -78 c-5 -4 -116 86 -116 95 0 2 27 -17 60 -43 33 -26 58 -49 56 -52z
m-976 84 c0 -2 -8 -10 -17 -17 -16 -13 -17 -12 -4 4 13 16 21 21 21 13z m1130
-6 c8 -5 11 -10 5 -10 -5 0 -17 5 -25 10 -8 5 -10 10 -5 10 6 0 17 -5 25 -10z
m-1018 -42 c-6 -6 -7 0 -4 19 5 21 7 23 10 9 2 -10 0 -22 -6 -28z m-466 4
c-18 -16 -18 -16 -6 6 6 13 14 21 18 18 3 -4 -2 -14 -12 -24z m654 -2 c12 -23
12 -24 -3 -11 -10 7 -17 20 -17 29 0 18 3 16 20 -18z m460 5 c14 -19 14 -19
-2 -6 -10 7 -18 18 -18 24 0 6 1 8 3 6 1 -2 9 -13 17 -24z m-672 -50 c-6 -14
-13 -23 -15 -21 -5 5 15 46 22 46 3 0 -1 -11 -7 -25z m251 -40 c0 -5 -6 1 -14
15 -8 14 -14 30 -14 35 0 6 6 -1 14 -15 8 -14 14 -29 14 -35z m-202 13 c-3 -7
-5 -2 -5 12 0 14 2 19 5 13 2 -7 2 -19 0 -25z m130 -5 c-3 -10 -5 -4 -5 12 0
17 2 24 5 18 2 -7 2 -21 0 -30z m-896 -16 c-10 -9 -11 -8 -5 6 3 10 9 15 12
12 3 -3 0 -11 -7 -18z m1663 7 c3 -8 2 -12 -4 -9 -6 3 -10 10 -10 16 0 14 7
11 14 -7z m-964 -2 c0 -5 -7 -17 -15 -28 -14 -18 -14 -17 -4 9 12 27 19 34 19
19z m290 -47 c0 -5 -5 -3 -10 5 -5 8 -10 20 -10 25 0 6 5 3 10 -5 5 -8 10 -19
10 -25z m-103 -7 c-3 -7 -5 -2 -5 12 0 14 2 19 5 13 2 -7 2 -19 0 -25z m-331
-14 c-4 -9 -9 -15 -11 -12 -3 3 -3 13 1 22 4 9 9 15 11 12 3 -3 3 -13 -1 -22z
m564 -7 c0 -5 -4 -5 -10 -2 -5 3 -10 14 -10 23 0 15 2 15 10 2 5 -8 10 -19 10
-23z m-477 -114 c-10 -61 -23 -95 -17 -43 3 25 8 53 10 63 9 30 13 18 7 -20z
m391 -43 c4 -42 3 -46 -3 -20 -16 64 -21 106 -12 90 5 -8 11 -40 15 -70z
m-1134 0 c-11 -30 -19 -45 -20 -33 0 20 30 96 36 90 1 -1 -6 -27 -16 -57z
m870 -47 c-10 -15 -11 -14 -6 7 3 14 7 43 8 65 2 39 2 39 5 -7 2 -26 -1 -56
-7 -65z m123 43 c3 -30 1 -43 -4 -35 -5 8 -8 34 -8 59 1 53 6 44 12 -24z m886
-21 c0 -11 -9 3 -19 30 -25 62 -25 70 0 25 11 -19 19 -44 19 -55z m-755 -31
c3 -8 2 -12 -4 -9 -6 3 -10 10 -10 16 0 14 7 11 14 -7z"/>
<path d="M1031 1363 c-1 -24 30 -26 37 -3 3 9 -1 11 -11 7 -9 -3 -18 -1 -21 6
-2 7 -5 2 -5 -10z"/>
<path d="M779 1256 c12 -14 12 -16 -3 -10 -9 3 -16 1 -16 -6 0 -6 8 -10 18 -8
21 4 23 29 2 36 -13 5 -13 3 -1 -12z"/>
<path d="M1260 1190 c0 -5 4 -10 9 -10 6 0 13 5 16 10 3 6 -1 10 -9 10 -9 0
-16 -4 -16 -10z"/>
<path d="M1225 900 c-8 -12 2 -30 17 -30 7 0 6 5 -1 14 -10 12 -8 13 10 9 15
-4 20 -3 15 5 -9 15 -33 16 -41 2z"/>
<path d="M955 789 c-4 -6 -4 -13 0 -17 3 -3 10 0 15 7 6 11 9 10 13 -5 4 -16
5 -16 6 4 1 23 -22 31 -34 11z"/>
<path d="M1030 775 c0 -16 2 -17 10 -5 7 11 10 11 10 2 0 -7 5 -10 10 -7 18
11 11 34 -10 32 -13 -1 -20 -8 -20 -22z"/>
</g>
</svg>
